HIERARCHY
ROOT Hips
{
 OFFSET 0.000000 0.000000 0.000000
 CHANNELS 6 Xposition Yposition Zposition Yrotation Xrotation Zrotation
 JOINT Chest
 {
  OFFSET 0.000000 9.585900 0.002600
  CHANNELS 3 Yrotation Xrotation Zrotation
  JOINT Chest2
  {
   OFFSET 0.000000 9.601200 -0.005300
   CHANNELS 3 Yrotation Xrotation Zrotation
   JOINT Chest3
   {
    OFFSET 0.000000 9.561800 0.000000
    CHANNELS 3 Yrotation Xrotation Zrotation
    JOINT Chest4
    {
     OFFSET 0.000000 9.552100 0.000000
     CHANNELS 3 Yrotation Xrotation Zrotation
     JOINT Neck
     {
      OFFSET 0.000000 14.453000 0.000000
      CHANNELS 3 Yrotation Xrotation Zrotation
      JOINT Head
      {
       OFFSET 0.000000 8.936500 -0.011300
       CHANNELS 3 Yrotation Xrotation Zrotation
       End Site
       {
        OFFSET 0.000000 17.073600 -0.006000
       }
      }
     }
     JOINT RightCollar
     {
      OFFSET -2.921100 9.558500 0.000000
      CHANNELS 3 Yrotation Xrotation Zrotation
      JOINT RightShoulder
      {
       OFFSET -13.519700 0.000000 0.000000
       CHANNELS 3 Yrotation Xrotation Zrotation
       JOINT RightElbow
       {
        OFFSET 0.000000 -29.696600 0.000000
        CHANNELS 3 Yrotation Xrotation Zrotation
        JOINT RightWrist
        {
         OFFSET 0.000000 -24.004700 0.000000
         CHANNELS 3 Yrotation Xrotation Zrotation
         End Site
         {
          OFFSET 0.000000 -17.728500 0.000000
         }
        }
       }
      }
     }
     JOINT LeftCollar
     {
      OFFSET 2.921100 9.558500 0.000000
      CHANNELS 3 Yrotation Xrotation Zrotation
      JOINT LeftShoulder
      {
       OFFSET 13.519700 0.000000 0.000000
       CHANNELS 3 Yrotation Xrotation Zrotation
       JOINT LeftElbow
       {
        OFFSET 0.000000 -29.696600 0.000000
        CHANNELS 3 Yrotation Xrotation Zrotation
        JOINT LeftWrist
        {
         OFFSET 0.000000 -24.004700 0.000000
         CHANNELS 3 Yrotation Xrotation Zrotation
         End Site
         {
          OFFSET 0.000000 -17.728500 0.000000
         }
        }
       }
      }
     }
    }
   }
  }
 }
 JOINT RightHip
 {
  OFFSET -7.771700 -0.012900 -0.001300
  CHANNELS 3 Yrotation Xrotation Zrotation
  JOINT RightKnee
  {
   OFFSET 0.000000 -40.869800 0.001200
   CHANNELS 3 Yrotation Xrotation Zrotation
   JOINT RightAnkle
   {
    OFFSET 0.000000 -39.717900 0.002100
    CHANNELS 3 Yrotation Xrotation Zrotation
    JOINT RightToe
    {
     OFFSET 0.000000 -4.965400 11.033500
     CHANNELS 3 Yrotation Xrotation Zrotation
     End Site
     {
      OFFSET 0.000000 -1.423100 5.872300
     }
    }
   }
  }
 }
 JOINT LeftHip
 {
  OFFSET 7.771700 -0.012900 -0.001300
  CHANNELS 3 Yrotation Xrotation Zrotation
  JOINT LeftKnee
  {
   OFFSET 0.000000 -40.869800 0.001200
   CHANNELS 3 Yrotation Xrotation Zrotation
   JOINT LeftAnkle
   {
    OFFSET 0.000000 -39.717900 0.002100
    CHANNELS 3 Yrotation Xrotation Zrotation
    JOINT LeftToe
    {
     OFFSET 0.000000 -4.965400 11.033500
     CHANNELS 3 Yrotation Xrotation Zrotation
     End Site
     {
      OFFSET 0.000000 -1.423100 5.872300
     }
    }
   }
  }
 }
}
MOTION
Frames: 6
Frame Time: 0.008333
-14.783333 58.627378 58.883151 -179.370847 -28.119616 -4.837267 3.501876 23.237508 4.981665 0.347199 3.485570 0.426177 0.575251 5.614824 0.697059 2.379170 19.576161 2.771869 -0.426201 11.969105 -1.179247 -0.316277 -13.565877 -2.072590 5.183949 -3.887234 -0.157246 28.311387 -32.985543 -28.851107 121.903761 -66.812531 -81.234036 24.245459 1.177781 -43.091085 -8.532962 -3.080937 -1.728059 10.227283 -11.335197 -0.629693 -150.283666 -56.290182 128.696108 -10.621672 -1.150796 12.856592 4.384956 -42.383341 -2.000463 -1.491037 67.687885 -3.907286 4.695942 8.756009 9.356316 -0.085630 -6.611273 0.413458 -9.869663 -49.872909 1.382043 26.171299 62.858013 26.001052 -8.424347 38.026041 4.775664 0.156691 -18.679530 -6.712090
-14.788229 58.625032 58.881669 -179.355658 -28.126202 -4.834331 3.489031 23.244368 4.971723 0.353553 3.483411 0.423842 0.576479 5.616130 0.696611 2.383203 19.577892 2.770533 -0.445197 11.952451 -1.193771 -0.346225 -13.596920 -2.092526 5.175387 -3.890057 -0.148040 28.321140 -32.996298 -28.851747 121.934657 -66.802287 -81.277823 24.234269 1.183821 -43.075501 -8.539260 -3.082387 -1.720044 10.243868 -11.352619 -0.642034 -150.332496 -56.286723 128.739465 -10.630579 -1.137363 12.865157 4.386099 -42.373684 -2.014115 -1.494188 67.692158 -3.916874 4.694142 8.752517 9.363153 -0.085459 -6.613670 0.415576 -9.830673 -49.858452 1.341340 26.127761 62.858682 25.965532 -8.390206 37.987674 4.800853 0.144955 -18.699115 -6.708657
-14.793756 58.622088 58.881277 -179.350157 -28.125804 -4.823512 3.484959 23.240562 4.956714 0.359946 3.484551 0.423806 0.575941 5.617817 0.697219 2.382994 19.578819 2.771048 -0.459846 11.939799 -1.205406 -0.376829 -13.632940 -2.121051 5.185675 -3.895262 -0.145720 28.319409 -32.995680 -28.852220 121.960374 -66.786942 -81.326483 24.232955 1.184218 -43.070169 -8.542060 -3.084340 -1.716679 10.256709 -11.372042 -0.652442 -150.363195 -56.284447 128.766147 -10.638341 -1.130201 12.875551 4.401954 -42.373355 -2.035214 -1.499161 67.696643 -3.927077 4.692169 8.750169 9.371216 -0.084144 -6.615440 0.417529 -9.738537 -49.856028 1.277352 26.049358 62.858019 25.907493 -8.370676 37.989766 4.834639 0.168088 -18.781529 -6.716735
-14.797393 58.619977 58.879551 -179.332500 -28.133590 -4.829427 3.479823 23.245077 4.956786 0.356418 3.487826 0.425051 0.576408 5.618095 0.697051 2.380529 19.578988 2.772057 -0.464839 11.935526 -1.209397 -0.408111 -13.678911 -2.163125 5.220869 -3.901111 -0.160431 28.296942 -32.999683 -28.842929 121.969533 -66.772781 -81.359153 24.234747 1.180811 -43.066517 -8.512806 -3.090844 -1.725905 10.238453 -11.387774 -0.654272 -150.385675 -56.279610 128.791981 -10.642969 -1.125543 12.880429 4.402261 -42.360711 -2.033078 -1.528206 67.697811 -3.970278 4.699372 8.745484 9.385204 -0.083297 -6.618309 0.424235 -9.737722 -49.846696 1.265024 26.044942 62.855519 25.900916 -8.358993 37.992786 4.849559 0.180328 -18.841429 -6.723361
-14.802408 58.616684 58.879592 -179.315560 -28.128650 -4.825227 3.474885 23.241841 4.948609 0.349512 3.487330 0.425383 0.576747 5.617946 0.696739 2.389766 19.579275 2.768237 -0.484453 11.917793 -1.225527 -0.440264 -13.715783 -2.183695 5.221028 -3.904556 -0.157785 28.307733 -33.002228 -28.841823 121.966259 -66.756382 -81.380989 24.231356 1.168509 -43.068617 -8.511863 -3.095469 -1.720149 10.228561 -11.400528 -0.664804 -150.396283 -56.265344 128.811938 -10.648282 -1.117233 12.885652 4.414294 -42.363209 -2.053968 -1.546963 67.702334 -3.993620 4.699143 8.740724 9.398462 -0.080691 -6.619218 0.424892 -9.704010 -49.852493 1.227729 26.063105 62.840487 25.914690 -8.348593 38.012762 4.892239 0.177436 -18.900463 -6.732471
-14.802046 58.614164 58.878836 -179.297975 -28.129514 -4.851430 3.489412 23.238295 4.975296 0.341114 3.488589 0.423898 0.577378 5.618002 0.695885 2.391656 19.579157 2.765351 -0.506839 11.888908 -1.252109 -0.452302 -13.713819 -2.168848 5.213298 -3.905699 -0.147341 28.327358 -33.009458 -28.849485 121.973623 -66.747770 -81.404675 24.234455 1.154825 -43.086528 -8.515393 -3.095464 -1.710180 10.230918 -11.415642 -0.682584 -150.398852 -56.254357 128.810390 -10.651077 -1.104887 12.881645 4.399094 -42.357429 -2.032915 -1.565304 67.698404 -4.011423 4.704883 8.741826 9.406477 -0.085120 -6.623073 0.427226 -9.716166 -49.852451 1.248390 26.039455 62.847493 25.898504 -8.359788 38.025162 4.881116 0.197446 -18.956068 -6.726627
